# xmcd CD database file
#
# Track frame offsets:
#	150
#	22153
#	37506
#
# Disc length: 790 seconds
#
# Revision: 0
# Processed by: cddbd v1.5.1PL0 Copyright (c) Steve Scherf et al.
# Submitted via: CDex 1.51
#
DISCID=17031403
DTITLE=河口恭吾 - 水曜日の朝
DYEAR=2004
DGENRE=JPop
TTITLE0=水曜日の朝
TTITLE1=紅茶月夜
TTITLE2=水曜日の朝 (- One Version)
EXTD=YEAR: 2004
EXTT0=
EXTT1=
EXTT2=
PLAYORDER=
